<?xml version="1.0"?>
<svg width="250.00000000000003" height="100" xmlns="http://www.w3.org/2000/svg">
 <!-- Created with SVG-edit - http://svg-edit.googlecode.com/ -->

 <g>
  <title>Layer 1</title>
  <path d="m-18.597561,113.719513c-1.219513,-2.439026 -3.408484,-5.416016 -5.182926,-15.243904c-0.766087,-4.243027 -2.429783,-9.209351 1.524389,-24.085365c2.10882,-7.933601 4.231041,-15.671032 8.841464,-21.951218c2.4273,-3.3064 5.810403,-7.089367 9.756097,-9.7561c3.72955,-2.520653 6.955967,-3.046478 9.451219,-3.353657c1.815563,-0.223507 2.830037,-0.309456 3.963415,1.524387c1.520588,2.460361 1.52439,6.402439 1.52439,10.670734c0,5.182926 0.154103,10.411736 -0.914635,13.719513c-0.800868,2.478714 -1.954552,3.564751 -3.353658,4.573166c-0.553047,0.398613 -1.219512,0.304878 -2.134146,0.304878c-0.914634,0 -2.351354,-1.092041 -3.353659,-3.048775c-1.187575,-2.31842 -2.437788,-5.446598 -2.743902,-8.841465c-0.383317,-4.251049 -0.863414,-8.304131 0,-13.414635c1.236794,-7.320522 3.504497,-12.749016 10.97561,-23.170732c3.393656,-4.733929 7.265026,-6.297178 11.585365,-7.317073c4.83029,-1.140277 9.502926,-1.622992 14.329268,-0.914635c3.149284,0.462216 6.610725,2.276822 8.231709,4.573171c2.448895,3.469198 1.740517,6.410109 1.524391,9.45122c-0.152824,2.150391 -1.487919,4.46125 -3.963417,5.792685c-1.954746,1.05135 -4.256889,1.066883 -7.31707,1.219509c-2.435997,0.121494 -5.240019,0.490326 -7.317076,0c-2.653963,-0.626514 -4.73844,-2.612673 -6.402439,-4.878046c-1.37454,-1.871304 -1.82803,-5.14172 -2.134146,-8.536587c-0.301178,-3.340107 -0.612625,-6.897313 0.609756,-9.756097c1.463131,-3.421825 7.811852,-8.878122 11.890244,-10.060976c10.451359,-3.031203 14.466003,-3.621767 22.865852,1.52439c2.763508,1.69306 3.810684,4.863817 3.963417,7.317074c0.208389,3.347178 0.863438,7.40819 -2.134148,12.804878c-1.68792,3.038836 -3.699619,5.267792 -8.536587,6.707317c-2.066246,0.614933 -5.027264,1.487148 -7.926826,-0.304878c-1.296726,-0.80142 -1.676445,-2.117905 -1.829269,-4.268293c-0.194511,-2.737 -0.57655,-5.847694 0,-8.841463c0.931442,-4.836583 5.243824,-10.578723 10.060974,-15.853659c3.779747,-4.138944 9.353264,-10.352722 37.5,-13.109756c3.944542,-0.386376 17.805672,4.39782 21.036591,19.512195c1.721947,8.055362 -0.511467,11.646536 -2.439026,14.634146c-2.613411,4.050648 -6.691078,5.944736 -8.841469,6.097561c-2.128769,0.151287 -5.958405,0.182276 -7.31707,-1.219511c-1.060944,-1.094612 -2.281685,-3.253157 -2.743904,-6.402439c-0.486992,-3.318111 -0.429497,-7.184637 1.219513,-10.670732c4.15947,-8.793326 18.884331,-15.048373 24.085365,-15.853658c4.559319,-0.705927 12.990448,-0.995116 16.463417,0.914634c3.261002,1.79319 9.298676,7.556805 10.670731,10.975609c2.406128,5.995443 3.113907,9.255859 2.439026,11.280488c-1.928223,5.784655 -5.728729,5.789707 -7.926834,6.097561c-7.246346,1.014883 -9.938438,-0.763031 -10.670731,-1.829269c-1.699936,-2.475161 -3.249565,-5.724612 -1.524391,-11.890244c2.690994,-9.61741 16.655266,-15.338418 25.914635,-16.463414c13.632797,-1.65636 21.919266,-0.031892 24.695129,3.04878c4.480576,4.972584 6.337051,9.288705 3.048782,15.853659c-8.027939,16.027562 -22.14064,15.596457 -41.158539,18.59756c-29.733276,4.692032 -54.429199,6.617287 -62.500008,8.841465c-8.462681,2.332172 -14.329266,6.30349 -14.329266,8.231705c0,0.964111 6.707317,1.829269 34.7561,1.829269c10.975609,0 30.676453,-0.799381 43.902443,2.743904c3.725082,0.997959 9.345627,4.059433 8.231705,8.536583c-0.633224,2.545074 -9.307281,7.161285 -28.963417,8.536591c-10.340569,0.723511 -37.180962,-0.693298 -82.317074,-12.195126c-13.641369,-3.476166 -37.130673,-7.987915 -41.768292,-18.902439c-1.3115,-3.086582 0.361648,-13.109896 13.414634,-20.121952c10.279897,-5.522354 36.237661,-6.619743 50.000001,-3.658536c30.636093,6.591887 69.014687,30.296689 77.439018,37.804879c12.875092,11.47493 19.561111,25.293686 19.817078,26.524391c0.377625,1.815651 0.549728,2.894592 5.792679,3.353653c2.733459,0.239334 9.507675,-4.842209 24.390244,-28.353653c5.202713,-8.219227 17.006226,-23.017097 22.86586,-36.890245c0.97821,-2.315979 -0.973373,-9.851294 -8.536591,-8.536586c-10.74649,1.868053 -14.395462,7.42807 -20.426819,21.341464c-8.861893,20.442999 -7.410324,39.617754 -9.756104,47.560976c-0.193085,0.653816 -1.010971,0.888123 -0.609756,-2.134148c1.537766,-11.583599 18.774399,-51.660503 58.536591,-61.280487c10.671936,-2.581947 44.849655,-0.752683 49.695114,13.109756c7.657349,21.907089 -9.351776,32.710564 -38.414627,33.231705c-42.806519,0.767582 -56.49675,-6.615238 -62.804886,-22.256096c-10.768372,-26.699866 4.007416,-42.488489 36.890244,-54.57317c9.268387,-3.406202 45.623077,-1.851965 50.609756,21.646341c1.265808,5.964729 -14.54483,21.368615 -45.731705,17.682927c-3.745071,-0.442596 -13.834076,-10.959159 -2.13414,-14.634146c5.817322,-1.827241 33.444397,2.013937 35.975601,31.097561c0.519348,5.967342 -17.673065,34.97242 -50.609756,32.926826c-4.634842,-0.287857 -5.542068,-7.6022 9.756104,-10.365852c13.554214,-2.448601 20.710541,4.114746 15.243896,14.329269c-11.411209,21.322044 -28.12001,22.083397 -56.097565,12.195122c-17.380768,-6.142982 -12.034058,-25.033798 -7.012192,-26.829269c27.567276,-9.856144 40.494293,-7.708885 42.073181,3.658539c3.769577,27.139503 -23.45961,34.588806 -55.182938,37.195122c-35.841927,2.944687 -45.713356,-16.361343 -44.512192,-19.817078c5.487091,-15.786331 16.921555,-21.198238 29.573166,-12.5c10.226639,7.031021 8.812225,22.292191 -15.243896,31.097565c-33.230675,12.163582 -51.69878,5.600174 -64.024391,-13.719513c-6.956978,-10.904663 -0.578941,-17.797897 9.756096,-19.81707c2.393768,-0.467674 9.789925,11.042267 0.914635,18.292679c-3.211418,2.623482 -20.776142,2.462524 -24.390244,-6.402435c-0.927937,-2.276123 3.237408,-14.813412 6.707317,-16.158539c15.478809,-6.000431 27.428127,2.741768 27.134144,4.268295c-1.583145,8.220604 -24.377041,10.802017 -30.182922,8.841461c-13.227468,-4.466713 -13.320856,-18.72879 -8.841465,-22.865852c25.972752,-23.987835 50.658665,-20.153934 52.439022,-17.378052c7.333221,11.433762 -13.504837,31.263687 -23.170731,32.621956c-22.651432,3.183014 -39.623829,-8.980103 -39.939022,-11.280491c-1.878897,-13.712803 22.159771,-31.419941 33.841461,-31.707317c33.63847,-0.827524 48.116375,17.370636 47.560978,21.646343c-2.217407,17.070728 -36.260719,25.729229 -45.121952,27.134144c-23.123352,3.666107 -28.442955,4.788757 -28.658537,4.573174c-0.431164,-0.43116 1.614307,-6.320435 7.926828,-8.231712c0.875389,-0.265045 4.66769,4.969971 3.963417,7.621956c-3.154457,11.878304 -22.628365,15.05703 -26.524391,14.329269c-9.962303,-1.860909 -12.175267,-14.331284 -10.060976,-16.463417c10.375646,-10.463203 26.46566,-0.430359 26.829268,2.439026c1.652088,13.037361 -15.847805,23.691307 -19.817072,23.475609c-9.911487,-0.538605 -14.163368,-15.487923 -12.5,-17.987808c8.124259,-12.209999 49.878893,-11.072304 57.621951,-6.707314c14.235439,8.024933 16.472668,14.559616 16.768291,14.634148c4.364883,1.100464 16.280403,-24.675186 23.170731,-29.878052c19.803673,-14.95369 33.400269,-6.153366 33.231705,-3.048779c-0.658691,12.131428 -19.08033,17.449398 -23.780479,15.2439c-11.716309,-5.497749 -3.213654,-26.8382 2.439018,-30.792683c39.676636,-27.756875 79.901047,-17.157274 82.621948,-12.5c8.691772,14.877415 4.473434,26.01165 -11.280487,27.439026c-13.349548,1.20953 -8.377289,-22.492104 -1.524384,-24.390244c28.79393,-7.975449 53.925873,15.093773 55.182922,20.121948c4.584518,18.338062 -29.853699,35.914371 -36.280487,35.670734c-8.965469,-0.339882 -7.031967,-14.652489 -2.13414,-17.378052c35.024048,-19.490356 62.031113,-4.817413 64.024384,-2.743904c1.703461,1.772018 -4.568054,1.579247 -7.926819,-1.524384c-17.60997,-16.272335 -31.792404,-28.799381 -35.060989,-28.048782c-10.897522,2.50251 -21.529663,15.267109 -21.646332,15.548779c-0.165009,0.398346 2.674179,-9.771618 -1.219513,-28.04878c-0.401764,-1.885897 -3.701202,-2.126616 -13.109756,24.695124c-2.938736,8.377705 -14.33522,39.09127 -32.621948,42.987801c-3.578217,0.762444 -21.911575,-14.00235 -15.243912,-36.585361c2.356384,-7.980961 40.539139,-41.857843 79.268295,-19.512196c3.381821,1.951214 6.381485,21.305351 -23.475601,28.353661c-6.527893,1.541031 -27.649536,-6.712971 -28.353668,-17.68293c-0.279617,-4.356224 17.476685,-35.416601 25.914642,-24.390244c4.265503,5.573986 -8.396118,17.14328 -23.780487,10.670731c-14.734116,-6.198973 -15.04657,-22.084388 -3.048782,-32.012194c33.17189,-27.448734 63.06041,-18.184209 85.975601,14.02439c11.924515,16.760586 1.536011,31.153957 -31.402435,30.487804c-24.767105,-0.500896 -27.518219,-11.245132 -18.292679,-18.292683c36.316116,-27.742498 64.094635,-13.129734 73.170715,18.902439c8.600891,30.35511 -4.243256,43.247719 -25.609741,50c-14.247604,4.502563 -19.922272,-3.101204 -14.939026,-8.536583c17.699585,-19.30545 36.164612,-7.252708 35.670746,1.829269c-0.854584,15.715706 -22.615189,21.207001 -58.23172,10.060974c-6.387939,-1.999077 -16.768127,-19.585556 0.609756,-27.743904c4.699738,-2.206375 26.285187,7.699684 20.731705,18.902443c-1.7341,3.498116 -49.003738,19.261925 -95.731705,-13.109756c-3.017799,-2.090637 -2.923004,-20.455074 14.329269,-25.60976c6.744064,-2.015011 16.254883,14.199207 -18.902443,22.560978c-13.350494,3.175262 -88.974464,2.736099 -109.756097,-34.7561c-1.632552,-2.94529 15.22202,-39.528359 60.670732,-30.182926c3.645248,0.749557 8.656708,19.326206 -14.634148,31.402439c-7.881714,4.086643 -29.474922,0.055283 -31.707315,-3.658535c-10.411783,-17.321081 35.555696,-53.821637 46.95122,-55.182928c46.397095,-5.542524 53.250381,19.652009 49.085365,23.780488c-26.826027,26.590661 -46.027435,29.392407 -66.158535,19.207316c-11.48069,-5.808517 -11.995216,-22.126692 3.658535,-27.134146c14.36734,-4.595946 19.062531,11.776427 -0.609756,23.475609c-22.881752,13.607864 -41.375385,13.163639 -50.609756,-5.487804c-7.066691,-14.273196 5.137916,-25.232133 24.390243,-21.036585c21.567486,4.700077 23.257896,21.29691 7.92683,28.963416c-19.09569,9.549057 -26.057962,-0.836227 -25.609756,-6.707317c1.393209,-18.249741 14.321423,-27.105091 21.341465,-20.42683c10.313526,9.811397 -4.428684,27.476873 -25.000001,28.353658c-15.159855,0.646139 -17.383478,-8.871962 -14.02439,-17.073171c2.130749,-5.202222 7.28681,-5.736595 10.060975,1.52439c0.65287,1.708796 -6.159751,13.843168 -11.890244,9.756098c-1.023418,-0.729916 2.38671,-13.981851 21.341464,-28.963415c3.44961,-2.726521 9.623438,-4.368617 2.743902,5.792683c-4.116383,6.080031 -21.098181,24.234842 -36.280488,22.865854c-0.678974,-0.061222 1.161927,-10.814847 52.134147,-14.329268c11.862083,-0.817864 64.374763,10.359457 68.597557,40.548779c0.829773,5.932148 -20.26078,26.998245 -35.975609,21.646339c-0.408142,-0.139 7.885834,-22.75898 60.060974,-42.378046c10.465744,-3.93536 34.33548,5.788404 19.512192,39.024393c-4.499863,10.089363 -38.805435,25.882355 -43.292679,25c-14.221405,-2.796448 -0.842934,-36.196789 6.097565,-40.548782c31.449905,-19.720455 48.709503,4.491241 46.341461,9.451218c-11.15976,23.374718 -41.158539,19.512199 -42.073166,17.987808l1.829262,-14.024391l10.060982,-10.670734l1.524384,-0.914631" id="svg_12" stroke-linecap="null" stroke-linejoin="null" stroke-dasharray="null" stroke-width="3" stroke="#7f7f00" fill="none"/>
  <path d="m39.634148,105.792686c-0.609756,0 -9.248314,-1.010017 -5.18293,-14.024391c7.199287,-23.046837 23.05838,-12.146828 9.146343,1.524391c-2.141685,2.104614 -19.004726,6.209106 -23.170732,-3.963417c-2.832603,-6.916626 26.101484,-19.992363 37.80488,-9.451218c9.677631,8.71656 -7.920372,23.871704 -11.585365,24.085365c-9.13591,0.5326 -20.20166,-13.097855 -7.317074,-24.695122c20.710426,-18.641216 32.828995,0.133636 28.048782,4.878044c-5.211372,5.172333 -29.41568,-7.480072 -23.475613,-33.231705c9.388317,-40.700646 61.12463,-45.114444 60.670734,-31.402439c-1.037148,31.331955 -47.578964,28.113895 -49.390247,16.158535c-4.19062,-27.660132 40.355366,-43.192265 46.036587,-31.09756c7.170319,15.264842 -31.9729,28.147834 -35.365852,16.768292c-4.325073,-14.505756 57.606972,-34.242558 68.902443,-33.536585c35.746613,2.23418 11.97847,54.23951 4.573166,42.987804c-9.169739,-13.932592 43.099823,-41.807073 51.829269,-30.792683c16.097427,20.310938 -28.797302,64.727097 -44.207321,54.57317c-6.609299,-4.35498 17.368011,-16.825947 20.731705,-6.097561c11.592407,36.973602 -44.86528,58.870071 -53.353653,44.512199c-5.842644,-9.882698 22.972809,-11.532532 20.731705,5.182922c-2.519028,18.788338 -15.366829,24.60836 -26.219513,14.939026c-5.690849,-5.070335 14.011139,-60.955112 93.902435,-11.585365c14.384171,8.888863 3.417725,23.060822 -11.890244,14.634148c-22.81665,-12.56002 50.065674,-81.916611 62.195129,-58.231709c3.647781,7.122967 -25.040176,3.093098 -22.86586,-12.804878c2.239273,-16.372982 16.10791,-3.878128 3.353668,-0.609756c-25.311111,6.486164 -36.895996,-33.372269 -23.170731,-37.5c8.309341,-2.49895 5.420837,23.207766 -14.024399,14.329268c-12.259415,-5.597522 0.293198,-29.476023 6.097565,-25c12.563629,9.688419 -31.284515,50.063829 -88.719513,30.792682c-36.891052,-12.378043 5.861214,-40.412731 14.63414,-12.804877c9.834473,30.948468 -74.230125,53.480836 -106.097555,6.09756c-8.590178,-12.772625 74.898352,-21.367805 68.292685,6.097563c-7.778778,32.342972 -90.162232,-0.514837 -97.865856,-25.304879c-0.909257,-2.925964 41.427734,-9.727694 51.829269,-4.878049c31.960102,14.901179 31.654301,52.466425 16.463413,63.719511c-5.505299,4.078209 1.524391,2.439026 12.5,6.707321l-2.439026,6.402435l-1.219513,0.609756" id="svg_13" stroke-linecap="null" stroke-linejoin="null" stroke-dasharray="null" stroke-width="3" stroke="#00bfbf" fill="none"/>
 </g>
</svg>
