<svg width="640" height="480" xmlns="http://www.w3.org/2000/svg">
 <!-- Created with SVG-edit - http://svg-edit.googlecode.com/ -->
 <g>
  <title>Camada 1</title>
  <path d="m21,449c1,0 6.074369,0.117065 14,-5c12.116314,-7.822723 24.82217,-18.246704 40,-29c18.784927,-13.308899 47.830055,-31.555328 80,-51c33.942474,-20.516052 68.604797,-47.676208 111,-72c37.65863,-21.606201 73.425934,-41.175064 105,-58c30.431,-16.215836 55.257721,-31.578613 80,-47c17.183929,-10.710403 31.63504,-21.142365 40,-28c6.562012,-5.379578 11.222717,-9.723984 15,-13c3.205109,-2.779785 5.61731,-4.076126 6,-5c0.541199,-1.306564 2.076111,-3.61731 3,-4c1.30658,-0.541199 3,-4 4,-5c3,-3 4.917603,-4.386871 6,-7c0.765381,-1.847755 1.692566,-4.186005 3,-6c2.480713,-3.441811 4.61731,-4.076118 5,-5c1.082397,-2.613129 1.906311,-3.103401 3,-4c2.78833,-2.285881 5.380737,-4.522209 8,-7c3.632263,-3.436073 6.4505,-6.450493 9,-9c2.5495,-2.549507 5,-4 6,-6l1,-1l1,0l0,-1" id="svg_1" stroke-width="5" stroke="#000000" fill="none"/>
  <polyline id="svg_2" points="51,60 50,59 " stroke-linecap="round" stroke-width="5" stroke="#000000" fill="none"/>
  <path d="m54,59c0,0 4.849373,7.119202 12,16c9.796417,12.166763 26.122581,29.887909 38,43c16.168289,17.848999 28.773132,29.230133 45,45c17.755386,17.255325 40.18866,37.973389 88,77c22.62558,18.468414 45.416565,34.757904 66,50c18.501373,13.700348 36.831299,26.231873 56,40c19.82843,14.241974 33.782135,22.385223 53,33c18.794556,10.380951 34.543457,19.770599 51,29c11.701721,6.562744 24.506104,11.079742 36,18c7.369659,4.437134 15.138794,10.811157 22,16c5.107117,3.862305 10.88855,6.194092 16,9c5.880432,3.228058 10.190735,4.42215 14,6c5.387085,2.231415 7,5 9,6l2,1l0,1" id="svg_3" stroke-width="5" stroke="#000000" fill="none"/>
  <path d="m282,359c-1,-1 -4.763031,-2.380554 -11,-6c-5.802002,-3.367035 -14.378021,-7.468445 -23,-14c-7.348923,-5.567169 -15.237381,-10.73764 -23,-18c-7.229065,-6.763184 -13.901031,-15.397644 -19,-24c-6.161102,-10.394257 -10.584808,-24.168243 -14,-32c-4.468979,-10.248322 -7.876648,-20.013107 -9,-30c-0.901184,-8.011734 -2.693604,-18.18132 -1,-26c2.557983,-11.809174 8.15712,-21.071518 14,-29c6.306381,-8.557434 14.969116,-16.21167 23,-22c7.255966,-5.229813 16.046585,-6.848877 26,-10c9.044403,-2.863342 18.971191,-4.499634 32,-5c13.989685,-0.537277 27.272552,-1.200882 43,3c20.471924,5.46814 38.380707,14.387161 58,27c16.33255,10.499878 36.2435,22.743576 51,37c13.222107,12.774033 25.200317,23.220184 32,35c4.923676,8.5298 6.499023,16.953308 7,25c0.372833,5.988403 0.786316,17.301514 -3,26c-5.000854,11.488739 -12.266327,22.74057 -22,33c-9.259766,9.759949 -17.540649,17.702637 -31,26c-10.666046,6.575348 -22.765533,12.054047 -34,14c-12.847107,2.225281 -22,2 -34,2c-11,0 -22.053528,1.083923 -33,0c-10.148407,-1.004883 -20.353943,-3.690369 -30,-7c-10.575195,-3.628418 -20.982727,-9.037598 -34,-15c-10.985504,-5.031769 -20.777115,-10.388184 -31,-16c-7.840607,-4.304077 -12,-7 -15,-8l-1,-2l-2,-1" id="svg_4" stroke-width="5" stroke="#000000" fill="none"/>
  <path d="m111,64c0,-1 -0.065857,-2.144295 2,-3c2.921562,-1.210152 7.95327,-4.071934 11,-6c4.927216,-3.118099 10.844635,-7.546913 17,-9c6.881912,-1.624599 12.937958,-3.498291 19,-4c4.982956,-0.412403 12.03894,-0.7883 20,0c10.148407,1.00489 20.145508,4.620495 31,9c9.133453,3.685112 13.412079,3.968552 17,6c1.230652,0.696781 1.823746,1.486256 4,2c1.946503,0.459507 5,0 9,0c7,0 15.973572,-4.06675 26,-8c12.96637,-5.086552 27.104645,-10.67453 40,-15c11.097046,-3.722271 22.990112,-7.13833 36,-8c17.988342,-1.191401 22.106995,-1.919012 26,-1c2.176239,0.513742 6,4 8,6c5,5 8.413605,7.625317 12,12c2.285889,2.788326 5.823761,7.486256 8,8c0.973236,0.229752 2,0 4,0c5,0 12.030487,0.146793 22,-2c13.042694,-2.808559 24.874329,-5.556976 37,-8c12.89386,-2.597797 21.958466,-2.499233 31,-3c4.99234,-0.276501 8,0 10,0c1,0 2.613831,0.296997 5,3c1.479828,1.676331 3.186005,3.692547 5,5c3.441833,2.480717 5,4 9,6l5,4" id="svg_5" stroke-width="5" stroke="#000000" fill="none"/>
  <path d="m563,82c-2,3 -7.296936,7.776276 -11,13c-5.455872,7.696327 -8.47345,16.870018 -11,27c-2.467896,9.894913 -3,19 -3,28c0,9 -1.343628,19.50618 3,29c5.424561,11.856384 13.171997,21.668198 23,33c10.192566,11.752106 21.702454,20.162888 29,27c6.727966,6.303497 10,10 10,12c0,1 0.366577,2.022476 0,5c-0.503784,4.092224 -6.445435,8.447968 -14,15c-6.410217,5.55957 -13.589783,12.44043 -20,18c-7.554565,6.552032 -15.445435,12.447968 -23,19c-5.341858,4.632965 -10.147705,9.94342 -12,15c-1.087708,2.96933 -2,6 -2,9l0,2l34,71" id="svg_6" stroke-width="5" stroke="#000000" fill="none"/>
  <path d="m508,442c-1,0 -4,1 -8,1c-4,0 -11,0 -19,0c-12,0 -29.875763,-1.362579 -44,-6c-19.838654,-6.513611 -39.095062,-10.616882 -64,-17c-22.089539,-5.66153 -40.938354,-10.452911 -54,-12c-11.958008,-1.416351 -23,-1 -32,-1c-7,0 -13.776367,1.408936 -19,4c-4.82428,2.392975 -9.867126,5.139038 -13,8c-5.767258,5.266754 -13.570023,10.541473 -21,16c-7.602783,5.58548 -15.168243,8.584808 -23,12c-6.149002,2.681396 -11.878555,4.493469 -15,5c-3.948349,0.640717 -7,0 -10,0c-1,0 -4,0 -6,-2c-1,-1 -4.21167,-2.714111 -7,-5c-2.187347,-1.793182 -3.418854,-3.418854 -5,-5c-1.581146,-1.581146 -4.863251,-4.14682 -7,-6c-3.777267,-3.276001 -8.186005,-5.692535 -10,-7c-2.29454,-1.653809 -3,-2 -4,-2l-1,-1" id="svg_7" stroke-width="5" stroke="#000000" fill="none"/>
  <path d="m55,399c-2,0 -6.639915,-2.709229 -14,-6c-2.886864,-1.290741 -6.458805,-2.693451 -7,-4c-0.382683,-0.923889 -0.24744,-3.010223 0,-6c0.501709,-6.062042 3.146381,-16.988708 4,-29c2.414394,-33.973083 2,-49 2,-66c0,-12 2.477844,-23.880707 5,-35c2.473179,-10.903366 6.413208,-23.255188 11,-33c5.336174,-11.336899 9.148582,-17.945847 12,-26c2.11071,-5.96196 2.847229,-10.041321 4,-14c0.884132,-3.036163 1,-5 1,-7c0,-1 -0.422157,-4.19075 -2,-8c-2.231407,-5.3871 -6,-10 -10,-16c-4,-6 -7,-12 -9,-18c-1,-3 -1.493458,-6.878555 -2,-10c-0.640728,-3.948349 0,-7 0,-9c0,-1 -0.689259,-3.080254 0,-6c0.513744,-2.176254 1,-3 1,-4c0,-3 1.144295,-3.934143 2,-6c1.210152,-2.921562 2,-4 3,-6l0,-2l1,-1l0,-1" id="svg_8" stroke-width="5" stroke="#000000" fill="none"/>
 </g>
</svg>
