<svg xmlns="http://www.w3.org/2000/svg" xmlns:xlink="http://www.w3.org/1999/xlink" width="919px" height="510px" viewBox="164 175 728 404" preserveAspectRatio="xMidYMid meet"  ><defs id="svgEditorDefs"><linearGradient gradientUnits="objectBoundingBox" id="lgrd2-fire" spreadMethod="pad" x1="0%" x2="100%" y1="0%" y2="0%"><stop offset="0%" style="stop-color:rgb(255,255,0);stop-opacity:1"/><stop offset="100%" style="stop-color:rgb(255,0,0);stop-opacity:1"/></linearGradient><linearGradient gradientUnits="objectBoundingBox" id="lgrd2-peachpuff-sienna-v" spreadMethod="pad" x1="0%" x2="0%" y1="0%" y2="100%"><stop offset="0%" style="stop-color:peachpuff;  stop-opacity:0.84;"/><stop offset="100%" style="stop-color:sienna;  stop-opacity:1"/></linearGradient><linearGradient gradientTransform="skewX(-45)" gradientUnits="objectBoundingBox" id="lgrd2-c-repeat" spreadMethod="repeat" x1="0%" x2="5%" y1="0%" y2="0%"><stop id="c1" offset="5%" stop-color="red" stop-opacity="0.8"/><stop id="c2" offset="75%" stop-color="yellow" stop-opacity="1"/></linearGradient><linearGradient gradientUnits="objectBoundingBox" id="lgrd2-black-white" spreadMethod="pad" x1="0%" x2="100%" y1="0%" y2="100%"><stop offset="0%" stop-color="black"/><stop offset="100%" stop-color="white"/></linearGradient><linearGradient id="lgrd3-fr-h"><stop offset="0%" stop-color="blue"/><stop offset="50%" stop-color="black" stop-opacity="0"/><stop offset="100%" stop-color="red"/></linearGradient><linearGradient id="lgrd3-fr-v" x1="0" x2="0" y1="0" y2="100%"><stop offset="0%" stop-color="blue"/><stop offset="50%" stop-color="black" stop-opacity="0"/><stop offset="100%" stop-color="red"/></linearGradient><radialGradient cx="50%" cy="50%" fx="50%" fy="50%" id="rgrd2-white-green" r="50%"><stop offset="0%" style="stop-color:rwhite;stop-opacity:0"/><stop offset="100%" style="stop-color:green;stop-opacity:1"/></radialGradient><radialGradient cx="45%" cy="45%" fx="30%" fy="30%" gradientUnits="objectBoundingBox" id="rgrd3-b"><stop offset="0%" stop-color="#f9a5a5"/><stop offset="50%" stop-color="#f98585"/><stop offset="100%" stop-color="#f96b6b"/></radialGradient><radialGradient cy="60%" fx="45%" fy="45%" gradientUnits="objectBoundingBox" id="rgrd11-b" r="2"><stop offset="0%" stop-color="#48afc1"/><stop offset="10%" stop-color="#b4c63b"/><stop offset="20%" stop-color="#ef5b2b"/><stop offset="30%" stop-color="#503969"/><stop offset="40%" stop-color="#ab6294"/><stop offset="50%" stop-color="#1cb98f"/><stop offset="60%" stop-color="#48afc1"/><stop offset="70%" stop-color="#b4c63b"/><stop offset="80%" stop-color="#ef5b2b"/><stop offset="90%" stop-color="#503969"/><stop offset="100%" stop-color="#ab6294"/></radialGradient><radialGradient gradientUnits="objectBoundingBox" id="rgrd3-c" x1="0" x2="100%" y1="0" y2="100%"><stop offset="0%" stop-color="#3e3168"/><stop offset="60%" stop-color="#7363a5"/><stop offset="90%" stop-color="#8979ba"/></radialGradient><radialGradient cx="60%" cy="60%" fx="75%" fy="75%" gradientUnits="objectBoundingBox" id="rgrd6-a" r="45%"><stop offset="0%" stop-color="#a595d8"/><stop offset="20%" stop-color="#a595d8"/><stop offset="40%" stop-color="#8979ba"/><stop offset="60%" stop-color="#7363a5"/><stop offset="80%" stop-color="#605091"/><stop offset="100%" stop-color="#3e3168"/></radialGradient><linearGradient gradientUnits="objectBoundingBox" id="lgrd4-green-red-blue" spreadMethod="pad" x1="0%" x2="100%" y1="0%" y2="0%"><stop offset="10%" stop-color="#00cc00" stop-opacity="1"/><stop offset="30%" stop-color="#006600" stop-opacity="1"/><stop offset="70%" stop-color="#cc0000" stop-opacity="1"/><stop offset="90%" stop-color="#000099" stop-opacity="1"/></linearGradient><radialGradient fx="30%" fy="30%" gradientUnits="objectBoundingBox" id="rgrd11-a"><stop offset="0" stop-color="#f9caaa"/><stop offset="20%" stop-color="#f9caaa"/><stop offset="20%" stop-color="#f9ae7a"/><stop offset="40%" stop-color="#f9ae7a"/><stop offset="40%" stop-color="#f79959"/><stop offset="60%" stop-color="#f79959"/><stop offset="60%" stop-color="#fc9149"/><stop offset="80%" stop-color="#fc9149"/><stop offset="80%" stop-color="#f79959"/><stop offset="90%" stop-color="#f97821"/><stop offset="100%" stop-color="#f97821"/></radialGradient><radialGradient gradientUnits="objectBoundingBox" id="rgrd-wave" r="5%" spreadMethod="reflect"><stop offset="0%" stop-color="navy" stop-opacity="1.00"/><stop offset="20%" stop-color="navy" stop-opacity="0.90"/><stop offset="40%" stop-color="navy" stop-opacity="0.65"/><stop offset="60%" stop-color="navy" stop-opacity="0.35"/><stop offset="80%" stop-color="navy" stop-opacity="0.10"/><stop offset="100%" stop-color="navy" stop-opacity="0.00"/></radialGradient><radialGradient cx="50%" cy="50%" fx="50%" fy="50%" id="rgrd2-white-red" r="50%"><stop offset="0%" style="stop-color:white;stop-opacity:0"/><stop offset="100%" style="stop-color:red;stop-opacity:1"/></radialGradient><polygon id="svgEditorShapeDefs" fill="khaki" stroke="black" style="vector-effect: non-scaling-stroke; stroke-width: 1px;"/></defs><rect id="svgEditorBackground" x="0" y="0" width="1160" height="510" style="fill: none; stroke: none;"/><g id="e2963_group" transform="matrix(1 0 0 1 566 198)"><circle id="e1465_circle" cx="-182" cy="289" stroke="black" style="stroke-width: 1px;" r="81.633327" fill="khaki"/><circle id="e1479_circle" cx="176" cy="291" stroke="black" style="stroke-width: 1px;" r="81.608823" fill="khaki"/><rect x="-389.99999999999375" y="-6.000000000039066" stroke="blue" id="e1520_rectangle" style="stroke-width: 1px;" width="706" height="192" fill="blue"/><path d="M-298,283a124.004072,124.004072,0,1,1,248,2" stroke="blue" id="e1595_circleArc" style="fill: none; stroke-width: 8px;"/><path d="M58,293a113.59141,113.59141,0,1,1,226,2" stroke="blue" id="e1613_circleArc" style="fill: none; stroke-width: 9px;"/><rect x="-58" y="179" id="e1657_rectangle" style="stroke-width: 1px; stroke: none;" width="122" height="118" fill="blue" /><polygon stroke="blue" id="e1779_polygon" style="stroke-width: 1px;" points="-48 245 -122 157 -22 143 -32 191" fill="blue" /><polygon stroke="blue" id="e1968_polygon" style="stroke-width: 1px;" points="52 253 -22 165 78 151 130 155" fill="blue" /><polygon stroke="blue" id="e2039_polygon" style="stroke-width: 1px;" points="316 167 316 293 282 293 282 253 270 223 254 207 230 181" fill="blue"/><polygon stroke="blue" id="e2207_polygon" style="stroke-width: 1px;" points="-303 258 -351 166 -288 159 -244 173" fill="blue" /><rect x="-390.298" y="182.48" stroke="blue" id="e2364_rectangle" style="stroke-width: 1px;" width="93" height="103" fill="blue" /><path d="M47.580952380952354,-0.9904761904761875v-1.5000000000000004a2,2,0,0,0,-2,-2h-4a2,2,0,0,0,-2,2v3a2,2,0,0,0,2,2h4a2,2,0,0,0,2,-2Z" stroke="black" id="e2465_shape" style="vector-effect: non-scaling-stroke; stroke-width: 1px;" fill="lightcyan" transform="matrix(13.125 0 0 13.125 -326.798 82.4175)"/><path d="M11.790476190476198,-0.7428571428571382v-1.5a2,2,0,0,0,-2,-1.9999999999999996h-4a2,2,0,0,0,-2,2v3a2,2,0,0,0,2,2h4a2,2,0,0,0,2,-2Z" stroke="black" id="e2571_shape" style="vector-effect: non-scaling-stroke; stroke-width: 1px;" fill="lightcyan" transform="matrix(13.125 0 0 13.125 -326.798 82.4175)"/><path d="M21.18095238095239,-0.8761904761904743v-1.5a2,2,0,0,0,-2,-2h-4a2,2,0,0,0,-2,2v3a2,2,0,0,0,2,2h4a2,2,0,0,0,2,-2Z" stroke="black" id="e2584_shape" style="vector-effect: non-scaling-stroke; stroke-width: 1px;" fill="lightcyan" transform="matrix(13.125 0 0 13.125 -326.798 82.4175)"/><path d="M29.8857142857143,-0.93333333333333v-1.5a2,2,0,0,0,-2,-2h-4a2,2,0,0,0,-2,2v3a2,2,0,0,0,2,2h4a2,2,0,0,0,2,-2Z" stroke="black" id="e2597_shape" style="vector-effect: non-scaling-stroke; stroke-width: 1px;" fill="lightcyan" transform="matrix(13.125 0 0 13.125 -326.798 82.4175)"/><path d="M38.514285714285734,-0.9904761904761781v-1.5a2,2,0,0,0,-2,-2h-4a2,2,0,0,0,-2,2v3a2,2,0,0,0,2,2h4a2,2,0,0,0,2,-2Z" stroke="black" id="e2610_shape" style="vector-effect: non-scaling-stroke; stroke-width: 1px;" fill="lightcyan" transform="matrix(13.125 0 0 13.125 -326.798 82.4175)"/><polygon stroke="black" id="e2754_polygon" style="stroke-width: 1px;" points="-390.298 22.48 -304.298 22.48 -305.298 137.48 -334.298 182.48 -391.298 183.48" fill="lightcyan" /></g></svg>